<?xml version="1.0" standalone="no"?><!DOCTYPE svg PUBLIC "-//W3C//DTD SVG 1.1//EN" "http://www.w3.org/Graphics/SVG/1.1/DTD/svg11.dtd"><svg t="1504797893101" class="icon" style="" viewBox="0 0 1024 1024" version="1.1" xmlns="http://www.w3.org/2000/svg" p-id="2964" xmlns:xlink="http://www.w3.org/1999/xlink" width="200" height="200"><defs><style type="text/css"></style></defs><path d="M716.753202 691.2C759.166872 691.2 793.6 656.7929 793.6 614.374749L793.6 435.22525C793.6 392.767234 759.20624 358.4 716.753202 358.4L307.246799 358.4C264.833128 358.4 230.4 392.807101 230.4 435.22525L230.4 614.374749C230.4 656.832765 264.793759 691.2 307.246799 691.2L460.8 691.2C465.648283 691.2 470.080451 688.460769 472.248668 684.124334L523.448668 581.724334 500.551332 581.724334 551.751332 684.124334C553.919549 688.460769 558.351717 691.2 563.2 691.2L716.753202 691.2ZM574.648668 672.675666 523.448668 570.275666C518.731557 560.841445 505.268443 560.841445 500.551332 570.275666L449.351332 672.675666 460.8 665.6 307.246799 665.6C278.92783 665.6 256 642.689853 256 614.374749L256 435.22525C256 406.949926 278.967286 384 307.246799 384L716.753202 384C745.07217 384 768 406.910147 768 435.22525L768 614.374749C768 642.650075 745.032714 665.6 716.753202 665.6L563.2 665.6 574.648668 672.675666Z" p-id="2965" fill="#ffffff"></path><path d="M422.4 524.8C422.4 503.592266 405.207734 486.4 384 486.4 362.792266 486.4 345.6 503.592266 345.6 524.8 345.6 546.007734 362.792266 563.2 384 563.2 405.207734 563.2 422.4 546.007734 422.4 524.8ZM320 524.8C320 489.453777 348.653776 460.8 384 460.8 419.346223 460.8 448 489.453777 448 524.8 448 560.146223 419.346223 588.8 384 588.8 348.653776 588.8 320 560.146223 320 524.8Z" p-id="2966" fill="#ffffff"></path><path d="M678.4 524.8C678.4 503.592266 661.207734 486.4 640 486.4 618.792266 486.4 601.6 503.592266 601.6 524.8 601.6 546.007734 618.792266 563.2 640 563.2 661.207734 563.2 678.4 546.007734 678.4 524.8ZM576 524.8C576 489.453777 604.653777 460.8 640 460.8 675.346223 460.8 704 489.453777 704 524.8 704 560.146223 675.346223 588.8 640 588.8 604.653777 588.8 576 560.146223 576 524.8Z" p-id="2967" fill="#ffffff"></path></svg>