<?xml version="1.0" standalone="no"?><!DOCTYPE svg PUBLIC "-//W3C//DTD SVG 1.1//EN" "http://www.w3.org/Graphics/SVG/1.1/DTD/svg11.dtd"><svg t="1504797981020" class="icon" style="" viewBox="0 0 1024 1024" version="1.1" xmlns="http://www.w3.org/2000/svg" p-id="3138" xmlns:xlink="http://www.w3.org/1999/xlink" width="200" height="200"><defs><style type="text/css"></style></defs><path d="M472.248668 671.324334C470.080451 675.660769 465.648283 678.4 460.8 678.4L307.246798 678.4C264.79376 678.4 230.4 644.032765 230.4 601.574749L230.4 422.425251C230.4 380.0071 264.833128 345.6 307.246798 345.6L716.753202 345.6C759.20624 345.6 793.6 379.967235 793.6 422.425251L793.6 601.574749C793.6 643.9929 759.166872 678.4 716.753202 678.4L563.2 678.4C558.351717 678.4 553.919549 675.660769 551.751332 671.324334L512.147269 592.116209 472.248668 671.324334ZM640 460.8C668.276979 460.8 691.2 483.723021 691.2 512 691.2 540.276979 668.276979 563.2 640 563.2 611.723021 563.2 588.8 540.276979 588.8 512 588.8 483.723021 611.723021 460.8 640 460.8ZM384 460.8C412.276979 460.8 435.2 483.723021 435.2 512 435.2 540.276979 412.276979 563.2 384 563.2 355.723021 563.2 332.8 540.276979 332.8 512 332.8 483.723021 355.723021 460.8 384 460.8Z" p-id="3139" fill="#ffffff"></path></svg>